<svg width="92" height="92" viewBox="0 0 92 92" fill="none" xmlns="http://www.w3.org/2000/svg">
<rect y="45.9619" width="65" height="65" rx="5" transform="rotate(-45 0 45.9619)" fill="#FDFDFD"/>
<path d="M37.75 64V67C37.75 67.6903 38.3096 68.25 39 68.25H40.75C41.4404 68.25 42 67.6903 42 67V64C42 63.5858 42.3358 63.25 42.75 63.25H48.5C48.9142 63.25 49.25 63.5858 49.25 64V67C49.25 67.6903 49.8096 68.25 50.5 68.25H52.25C52.9404 68.25 53.5 67.6903 53.5 67V64C53.5 63.5858 53.8358 63.25 54.25 63.25H59.5C60.5706 63.25 61.5081 62.8455 62.3018 62.0518C63.0955 61.258 63.5 60.3206 63.5 59.25V54C63.5 53.5858 63.8358 53.25 64.25 53.25H67C67.6904 53.25 68.25 52.6903 68.25 52V50.25C68.25 49.5596 67.6904 49 67 49H64.25C63.8358 49 63.5 48.6642 63.5 48.25V42.5C63.5 42.0858 63.8358 41.75 64.25 41.75H67C67.6904 41.75 68.25 41.1903 68.25 40.5V38.75C68.25 38.0596 67.6904 37.5 67 37.5H64.25C63.8358 37.5 63.5 37.1642 63.5 36.75V31.5C63.5 30.4293 63.0955 29.4919 62.3018 28.6982C61.5081 27.9045 60.5706 27.5 59.5 27.5H54.25C53.8358 27.5 53.5 27.1642 53.5 26.75V24C53.5 23.3096 52.9404 22.75 52.25 22.75H50.5C49.8096 22.75 49.25 23.3096 49.25 24V26.75C49.25 27.1642 48.9142 27.5 48.5 27.5H42.75C42.3358 27.5 42 27.1642 42 26.75V24C42 23.3096 41.4404 22.75 40.75 22.75H39C38.3096 22.75 37.75 23.3096 37.75 24V26.75C37.75 27.1642 37.4142 27.5 37 27.5H31.75C30.6794 27.5 29.742 27.9045 28.9482 28.6982C28.1545 29.4919 27.75 30.4293 27.75 31.5V36.75C27.75 37.1642 27.4142 37.5 27 37.5H24C23.3096 37.5 22.75 38.0596 22.75 38.75V40.5C22.75 41.1903 23.3096 41.75 24 41.75H27C27.4142 41.75 27.75 42.0858 27.75 42.5V48.25C27.75 48.6642 27.4142 49 27 49H24C23.3096 49 22.75 49.5596 22.75 50.25V52C22.75 52.6903 23.3096 53.25 24 53.25H27C27.4142 53.25 27.75 53.5858 27.75 54V59.25C27.75 60.3206 28.1545 61.258 28.9482 62.0518C29.742 62.8455 30.6794 63.25 31.75 63.25H37C37.4142 63.25 37.75 63.5858 37.75 64ZM59.25 32.5V58.25C59.25 58.6642 58.9142 59 58.5 59H32.75C32.3358 59 32 58.6642 32 58.25V32.5C32 32.0858 32.3358 31.75 32.75 31.75H58.5C58.9142 31.75 59.25 32.0858 59.25 32.5Z" fill="#1A5F7A" stroke="#1A5F7A" stroke-width="0.5"/>
<path d="M40.904 39.364V52H37.826V39.364H40.904ZM51.0006 49.768H46.2846L45.5286 52H42.3066L46.8786 39.364H50.4426L55.0146 52H51.7566L51.0006 49.768ZM50.2086 47.392L48.6426 42.766L47.0946 47.392H50.2086Z" fill="#1A5F7A"/>
</svg>
