<svg width="50" height="50" viewBox="0 0 50 50" fill="none" xmlns="http://www.w3.org/2000/svg">
<path d="M16.75 43V46C16.75 46.6904 17.3096 47.25 18 47.25H19.75C20.4404 47.25 21 46.6904 21 46V43C21 42.5858 21.3358 42.25 21.75 42.25H27.5C27.9142 42.25 28.25 42.5858 28.25 43V46C28.25 46.6904 28.8096 47.25 29.5 47.25H31.25C31.9404 47.25 32.5 46.6904 32.5 46V43C32.5 42.5858 32.8358 42.25 33.25 42.25H38.5C39.5706 42.25 40.5081 41.8455 41.3018 41.0518C42.0955 40.258 42.5 39.3206 42.5 38.25V33C42.5 32.5858 42.8358 32.25 43.25 32.25H46C46.6904 32.25 47.25 31.6904 47.25 31V29.25C47.25 28.5596 46.6904 28 46 28H43.25C42.8358 28 42.5 27.6642 42.5 27.25V21.5C42.5 21.0858 42.8358 20.75 43.25 20.75H46C46.6904 20.75 47.25 20.1904 47.25 19.5V17.75C47.25 17.0596 46.6904 16.5 46 16.5H43.25C42.8358 16.5 42.5 16.1642 42.5 15.75V10.5C42.5 9.42936 42.0955 8.49195 41.3018 7.69822C40.5081 6.9045 39.5706 6.5 38.5 6.5H33.25C32.8358 6.5 32.5 6.16421 32.5 5.75V3C32.5 2.30964 31.9404 1.75 31.25 1.75H29.5C28.8096 1.75 28.25 2.30964 28.25 3V5.75C28.25 6.16421 27.9142 6.5 27.5 6.5L21.75 6.5C21.3358 6.5 21 6.16421 21 5.75V3C21 2.30964 20.4404 1.75 19.75 1.75H18C17.3096 1.75 16.75 2.30964 16.75 3V5.75C16.75 6.16421 16.4142 6.5 16 6.5H10.75C9.67936 6.5 8.74195 6.9045 7.94822 7.69822C7.1545 8.49195 6.75 9.42936 6.75 10.5V15.75C6.75 16.1642 6.41421 16.5 6 16.5H3C2.30964 16.5 1.75 17.0596 1.75 17.75V19.5C1.75 20.1904 2.30964 20.75 3 20.75H6C6.41421 20.75 6.75 21.0858 6.75 21.5L6.75 27.25C6.75 27.6642 6.41421 28 6 28H3C2.30964 28 1.75 28.5596 1.75 29.25V31C1.75 31.6904 2.30964 32.25 3 32.25H6C6.41421 32.25 6.75 32.5858 6.75 33V38.25C6.75 39.3206 7.1545 40.258 7.94822 41.0518C8.74195 41.8455 9.67936 42.25 10.75 42.25H16C16.4142 42.25 16.75 42.5858 16.75 43ZM38.25 11.5V37.25C38.25 37.6642 37.9142 38 37.5 38H11.75C11.3358 38 11 37.6642 11 37.25L11 11.5C11 11.0858 11.3358 10.75 11.75 10.75L37.5 10.75C37.9142 10.75 38.25 11.0858 38.25 11.5Z" fill="#1A5F7A" stroke="#1A5F7A" stroke-width="0.5"/>
<path d="M19.904 18.364V31H16.826V18.364H19.904ZM30.0006 28.768H25.2846L24.5286 31H21.3066L25.8786 18.364H29.4426L34.0146 31H30.7566L30.0006 28.768ZM29.2086 26.392L27.6426 21.766L26.0946 26.392H29.2086Z" fill="#1A5F7A"/>
</svg>
